<?xml version="1.0" encoding="UTF-8"?><svg id="Layer_1" xmlns="http://www.w3.org/2000/svg" viewBox="0 0 620 620"><defs><style>.cls-1{isolation:isolate;opacity:.4;}</style></defs><path class="cls-1" d="M416.5,223.95c-25.14,13.92-64.23,43.82-72.69,97.02l77.41-17.04-4.72-79.98ZM182,54h-16c-8.84,0-16,7.16-16,16v248s.29-.28,.4-.39c-.03-.96-.4-1.84-.34-2.81l6.91-117c1.47-27.61,10.75-52.9,25.04-74.58v-37.22c8.84,0,16-7.16,16-16s-7.16-16-16-16Zm21.5,169.95l-4.72,79.98,77.41,17.04c-8.46-53.2-47.55-83.1-72.69-97.02Zm42.5,294.05v48h128v-48l-64-48-64,48Z"/><path d="M406,406H214c-70.69,0-128,57.31-128,128,0,17.67,14.33,32,32,32H246v-48l64-48,64,48v48h128c17.67,0,32-14.33,32-32,0-70.69-57.31-128-128-128Zm-230.7-58.09l118.54,26.09h32.31l118.54-26.09c15.48-3.41,26.17-17.43,25.24-33.11l-6.91-117c-4.28-80.61-71.53-143.8-153.04-143.8s-148.75,63.19-153.04,143.8l-6.91,117c-.93,15.68,9.77,29.7,25.24,33.11Zm240.39-137.73l5.53,93.74-87.22,19.2v-97.62l81.69-15.32Zm-105.69-108.18c46.57,0,85.95,30.06,99.72,72H210.23c13.71-41.86,53.14-72,99.77-72Zm-105.69,108.18l81.69,15.32v97.62l-87.22-19.2,5.53-93.74Z"/></svg>